<?xml version="1.0" encoding="UTF-8"?>
<svg width="800" height="600" viewBox="0 0 800 600" fill="none" xmlns="http://www.w3.org/2000/svg">
    <!-- Background Elements -->
    <circle cx="400" cy="300" r="250" fill="#E3F2FD" opacity="0.5"/>
    <circle cx="400" cy="300" r="200" fill="#BBDEFB" opacity="0.3"/>
    
    <!-- Decorative Lines -->
    <path d="M100 300 L700 300" stroke="#90CAF9" stroke-width="2" opacity="0.5"/>
    <path d="M400 100 L400 500" stroke="#90CAF9" stroke-width="2" opacity="0.5"/>
    
    <!-- Main Illustration -->
    <g transform="translate(300, 200)">
        <!-- Building -->
        <rect x="0" y="0" width="200" height="200" fill="#1A237E" rx="10"/>
        <rect x="20" y="20" width="40" height="40" fill="#FFFFFF"/>
        <rect x="70" y="20" width="40" height="40" fill="#FFFFFF"/>
        <rect x="120" y="20" width="40" height="40" fill="#FFFFFF"/>
        <rect x="20" y="70" width="40" height="40" fill="#FFFFFF"/>
        <rect x="70" y="70" width="40" height="40" fill="#FFFFFF"/>
        <rect x="120" y="70" width="40" height="40" fill="#FFFFFF"/>
        
        <!-- People -->
        <circle cx="50" cy="350" r="20" fill="#FFA726"/>
        <circle cx="150" cy="350" r="20" fill="#FFA726"/>
        <path d="M50 370 L50 400" stroke="#FFA726" stroke-width="4"/>
        <path d="M150 370 L150 400" stroke="#FFA726" stroke-width="4"/>
        
        <!-- Connection Lines -->
        <path d="M100 200 L100 350" stroke="#4CAF50" stroke-width="2" stroke-dasharray="5,5"/>
    </g>
    
    <!-- Decorative Dots -->
    <circle cx="200" cy="150" r="5" fill="#1A237E"/>
    <circle cx="600" cy="150" r="5" fill="#1A237E"/>
    <circle cx="200" cy="450" r="5" fill="#1A237E"/>
    <circle cx="600" cy="450" r="5" fill="#1A237E"/>
</svg> 